# xmcd
#
# Track frame offsets:
#	150
#	32521
#	45611
#	59928
#	76522
#	95560
#	109017
#	122947
#	142244
#	152704
#	169166
#	179318
#	199585
#
# Disc length: 2901 seconds
#
# Revision: 1
# Processed by: cddbd v1.4PL0 Copyright (c) Steve Scherf et al.
# Submitted via: audiograbber 1.80.04
#
DISCID=b20b530d
DTITLE=Mitch Cormier and the Can't Hardly Playboys - Back on Bourbon Street
DYEAR=2002
DGENRE=Bluegrass
TTITLE0=Evangeline special
TTITLE1=Jolie Blonde
TTITLE2=Cajun Stripper
TTITLE3=Heritage Waltz
TTITLE4=Amedee Two-Step
TTITLE5=Little Girl Next Store
TTITLE6=O.S.T Special
TTITLE7=Reno Waltz
TTITLE8=Bourbon Street
TTITLE9=In the Pines
TTITLE10=Paper in my Shoe
TTITLE11=Heart Broken Waltz
TTITLE12=Flames of Hell
EXTD=
EXTT0=
EXTT1=
EXTT2=
EXTT3=
EXTT4=
EXTT5=
EXTT6=
EXTT7=
EXTT8=
EXTT9=
EXTT10=
EXTT11=
EXTT12=
PLAYORDER=
